<?xml version="1.0" encoding="UTF-8" standalone="no"?>
<!-- Created with Inkscape (http://www.inkscape.org/) -->

<svg
   width="210mm"
   height="297mm"
   viewBox="0 0 210 297"
   version="1.1"
   id="svg5"
   inkscape:version="1.2.1 (9c6d41e4, 2022-07-14)"
   sodipodi:docname="disk-image-icon.svg"
   xmlns:inkscape="http://www.inkscape.org/namespaces/inkscape"
   xmlns:sodipodi="http://sodipodi.sourceforge.net/DTD/sodipodi-0.dtd"
   xmlns:xlink="http://www.w3.org/1999/xlink"
   xmlns="http://www.w3.org/2000/svg"
   xmlns:svg="http://www.w3.org/2000/svg">
  <sodipodi:namedview
     id="namedview7"
     pagecolor="#ffffff"
     bordercolor="#666666"
     borderopacity="1.0"
     inkscape:showpageshadow="2"
     inkscape:pageopacity="0.0"
     inkscape:pagecheckerboard="0"
     inkscape:deskcolor="#d1d1d1"
     inkscape:document-units="mm"
     showgrid="false"
     inkscape:zoom="1.7255553"
     inkscape:cx="320.18678"
     inkscape:cy="570.25121"
     inkscape:window-width="1629"
     inkscape:window-height="1336"
     inkscape:window-x="786"
     inkscape:window-y="25"
     inkscape:window-maximized="0"
     inkscape:current-layer="layer1" />
  <defs
     id="defs2">
    <linearGradient
       inkscape:collect="always"
       id="linearGradient3705">
      <stop
         style="stop-color:#6d5c20;stop-opacity:0.79298246;"
         offset="0"
         id="stop3701" />
      <stop
         style="stop-color:#6f5922;stop-opacity:0.30526316;"
         offset="1"
         id="stop3703" />
    </linearGradient>
    <linearGradient
       inkscape:collect="always"
       xlink:href="#linearGradient3705"
       id="linearGradient3707"
       x1="79.973516"
       y1="122.48465"
       x2="147.70685"
       y2="122.48465"
       gradientUnits="userSpaceOnUse"
       gradientTransform="matrix(0.5,0,0,0.5,58.166453,62.948845)" />
  </defs>
  <g
     inkscape:label="Layer 1"
     inkscape:groupmode="layer"
     id="layer1">
    <path
       id="circle348"
       style="fill:#000000;fill-opacity:1;stroke:none;stroke-width:1.62769"
       d="m 115.08671,107.66087 a 16.530287,16.530183 0 0 0 -16.530465,16.53046 16.530287,16.530183 0 0 0 16.530465,16.53014 16.530287,16.530183 0 0 0 16.53013,-16.53014 16.530287,16.530183 0 0 0 -16.53013,-16.53046 z m 0,12.90188 a 3.628587,3.6285642 0 0 1 3.62858,3.62858 3.628587,3.6285642 0 0 1 -3.62858,3.62825 3.628587,3.6285642 0 0 1 -3.62859,-3.62825 3.628587,3.6285642 0 0 1 3.62859,-3.62858 z m 6.7918,5.40638 a 0.6450836,0.6450836 0 0 1 0.64537,0.64504 0.6450836,0.6450836 0 0 1 -0.64537,0.64504 0.6450836,0.6450836 0 0 1 -0.64505,-0.64504 0.6450836,0.6450836 0 0 1 0.64505,-0.64504 z"
       inkscape:export-filename="disk-image-icon.png"
       inkscape:export-xdpi="96.000015"
       inkscape:export-ydpi="96.000015" />
    <path
       id="path236"
       style="fill:#787878;fill-opacity:1;stroke:none;stroke-width:1.6277"
       d="m 115.08671,107.66104 a 16.530186,16.530186 0 0 0 -16.530465,16.53013 16.530186,16.530186 0 0 0 16.530465,16.53013 16.530186,16.530186 0 0 0 16.53013,-16.53013 16.530186,16.530186 0 0 0 -16.53013,-16.53013 z m 0,12.09516 a 4.4349411,4.4349411 0 0 1 4.43497,4.43497 4.4349411,4.4349411 0 0 1 -4.43497,4.43496 4.4349411,4.4349411 0 0 1 -4.43497,-4.43496 4.4349411,4.4349411 0 0 1 4.43497,-4.43497 z m 6.7918,6.21276 a 0.6450836,0.6450836 0 0 1 0.64537,0.64504 0.6450836,0.6450836 0 0 1 -0.64537,0.64504 0.6450836,0.6450836 0 0 1 -0.64505,-0.64504 0.6450836,0.6450836 0 0 1 0.64505,-0.64504 z" />
    <circle
       style="fill:none;fill-opacity:0.511785;stroke:#d7d7d7;stroke-width:0.5;stroke-dasharray:none;stroke-opacity:1"
       id="circle5829"
       r="14.338924"
       cy="124.19117"
       cx="115.08654" />
    <circle
       style="fill:none;fill-opacity:0.511785;stroke:#d7d7d7;stroke-width:0.5;stroke-dasharray:none;stroke-opacity:1"
       id="circle387"
       r="9.342576"
       cy="124.19117"
       cx="115.08654" />
    <circle
       style="fill:none;fill-opacity:0.511785;stroke:#d7d7d7;stroke-width:0.5;stroke-dasharray:none;stroke-opacity:1"
       id="circle321"
       cy="124.19117"
       cx="115.08654"
       r="11.866695" />
    <path
       id="rect5905"
       style="fill:url(#linearGradient3707);fill-opacity:1;stroke:none;stroke-width:0.199216;stroke-dasharray:none;stroke-opacity:1"
       d="m 98.15321,107.25767 v 33.86699 h 33.86667 v -33.86699 z m 16.9335,11.45012 a 5.4832705,5.4832705 0 0 1 5.48305,5.48338 5.4832705,5.4832705 0 0 1 -5.48305,5.48337 5.4832705,5.4832705 0 0 1 -5.48338,-5.48337 5.4832705,5.4832705 0 0 1 5.48338,-5.48338 z m 6.76114,6.77914 a 1.1193174,1.1193174 0 0 1 1.11907,1.1194 1.1193174,1.1193174 0 0 1 -1.11907,1.11908 1.1193174,1.1193174 0 0 1 -1.11941,-1.11908 1.1193174,1.1193174 0 0 1 1.11941,-1.1194 z m -7.86155,5.95574 h 2.20049 c 0.28389,0 0.51237,0.40069 0.51237,0.89873 v 7.07215 c 0,0.49803 -0.22848,0.89905 -0.51237,0.89905 h -2.20049 c -0.28388,0 -0.51236,-0.40102 -0.51236,-0.89905 v -7.07215 c 0,-0.49804 0.22848,-0.89873 0.51236,-0.89873 z" />
  </g>
</svg>
